<?xml version="1.0" encoding="UTF-8"?>
<svg id="b" data-name="Layer 2" xmlns="http://www.w3.org/2000/svg" viewBox="0 0 374.171514113204466 374.171514113204466">
  <defs>
    <style>
      .f {
        fill: #d1e1f3;
        stroke: #dee2e6;
        stroke-width: 2px;
      }

      .g {
        fill: #7aa2d6;
      }

      .g, .h {
        stroke-width: 0px;
      }

      .h {
        fill: #5682c2;
      }
    </style>
  </defs>
  <g id="c" data-name="Color Logo">
    <g id="d" data-name="Backdrop">
      <circle class="f" cx="187.085757056604052" cy="187.085757056604052" r="186.085757056602205"/>
    </g>
    <g id="e" data-name="Logo">
      <g>
        <path class="h" d="M71.517954801971428,297.640276618272765c-2.669223274810065-.919369189379722,29.580562207502226,33.931136814790079,115.926136866914931,38.999048509032946-119.826673459135236,9.866090559065924-164.209711449085262-43.499169749333305-144.024644301750413-104.516577994061663,83.919739785191268,82.129426319197592,213.369283396448736,59.273750428439598,186.088932748873049,30.453815122713422C85.96836425552101,227.278689349843262,22.182064888747846,177.56546345505194,48.768380383180556,109.9266812617916c26.375303538226945,139.757749527892884,266.594266063284522,38.141537344663448,278.266618967491013,140.184174916694246,7.130339965111489,54.520518404840914-119.738851059693843,127.279305059939361-255.517044548700142,47.529420439786918Z"/>
        <path class="h" d="M298.19624689219836,81.222838660054549c2.449767902496205.920414305899612-19.101268314590016-31.272489730728012-114.649398022188507-43.774805735316477,119.747757576617005-9.858012555350797,162.901126628144993,48.271250448280625,142.729367474123137,109.239155029174071-83.864384746864744-82.062782788485492-213.228643280359393-59.225644880632899-185.966261012858013-30.429115072869536,143.445410009200714,35.269237418558987,216.307346557983692,79.502521647194953,189.738585187024,147.086414840803627,11.795335332668401-134.526620732800438-247.35391109486045-15.512822289258111-277.388705665517591-154.226489836044493-7.125627796273875-54.476192948513926,109.84774975833443-107.580316251975091,245.536412039416973-27.895159225747193Z"/>
      </g>
      <g>
        <path class="g" d="M146.209020945492739,334.480368111047937c-43.90771484375-2.25390625-76.607421875-15.58203125-92.87646484375-38.099609375-11.7646484375-16.283203125-14.65869140625-36.50390625-8.46435546875-58.7265625,54.052734375,50.3662109375,118.5576171875,54.3505859375,137.3603515625,54.3505859375,27.724609375,0,48.5537109375-6.7724609375,53.064453125-17.2529296875,1.4072265625-3.2705078125,1.92431640625-8.39453125-3.60595703125-14.2373046875l-.60595703125-.640625-.8564453125-.2099609375c-98.4716796875-24.2158203125-158.13232421875-55.2978515625-177.32470703125-92.3828125-7.5048828125-14.5009765625-9.03662109375-29.751953125-4.6103515625-46.369140625,19.494140625,67.6298828125,93.87646484375,72.751953125,159.86767578125,77.30078125,59.451171875,4.09765625,110.79541015625,7.6357421875,115.8974609375,52.2392578125,1.47412109375,11.2734375-3.4111328125,23.9423828125-13.75,35.7216796875-18.57373046875,21.1611328125-58.78515625,43.7724609375-115.94189453125,43.7724609375-40.50830078125,0-82.4619140625-12.0654296875-121.3251953125-34.892578125l-.2587890625-.1513671875-.75830078125-.26171875-.5888671875-.017578125c-1.66943359375,0-3.015625,1.3056640625-3.064453125,2.9716796875-.02734375.9375-.07861328125,2.681640625,7.60546875,8.5439453125,3.95068359375,3.013671875,10.791015625,7.6279296875,20.94189453125,12.4931640625,11.02978515625,5.2861328125,27.2939453125,11.4580078125,49.29443359375,15.8486328125Z"/>
        <path class="g" d="M332.317419382992739,241.160055611047937c-1.77978515625-9.962890625-5.67529296875-18.3837890625-11.73486328125-25.44921875-21.32373046875-24.8642578125-65.763671875-27.7802734375-112.8125-30.8681640625-67.60693359375-4.4365234375-137.51416015625-9.0234375-152.1513671875-76.2353515625-1.36376953125-10.7314453125,2.49169921875-21.6171875,11.1552734375-31.48828125,18.3955078125-20.95751953125,53.89306640625-33.47021484375,94.95703125-33.47021484375,30.3642578125,0,78.4248046875,6.9677734375,134.9462890625,40.16064453125l.22216796875.130859375.75146484375.2822265625.63427734375.01953125c1.6513671875,0,2.97802734375-1.248046875,3.0859375-2.9033203125.236328125-3.6259765625-9.16943359375-12.66455078125-24.77685546875-20.943359375-12.208984375-6.4755859375-32.2939453125-14.70849609375-63.07763671875-21.01123046875,47.94091796875.77783203125,84.0771484375,14.77734375,102.0244140625,39.61962890625,12.431640625,17.2080078125,15.66845703125,39.1240234375,9.283203125,62.1494140625-54.01513671875-50.31640625-118.47607421875-54.3017578125-137.26513671875-54.3017578125-27.70849609375,0-48.52490234375,6.767578125-53.0322265625,17.2412109375-1.40625,3.2685546875-1.92236328125,8.3896484375,3.6044921875,14.2275390625l.6064453125.640625.85595703125.2099609375c53.0126953125,13.03515625,93.6572265625,26.5791015625,124.2548828125,41.4072265625,32.2724609375,15.640625,52.65185546875,32.3076171875,62.30224609375,50.9541015625,4.876953125,9.4248046875,6.93115234375,19.2294921875,6.16650390625,29.6279296875Z"/>
      </g>
    </g>
  </g>
</svg>