<?xml version="1.0" encoding="UTF-8"?><svg id="b" xmlns="http://www.w3.org/2000/svg" viewBox="0 0 280.64 69.34"><defs><style>.e,.f{fill:#f2f6fb;stroke-width:0px;}.g{fill:#231f20;font-family:Univers-Condensed, Univers;font-size:26.76px;}.h{letter-spacing:.25em;}.i{letter-spacing:.23em;}.f{fill-rule:evenodd;}</style></defs><g id="c"><g id="d"><text class="g" transform="translate(34.16 63.32) scale(1.5 1)"><tspan class="i" x="0" y="0">S</tspan><tspan class="h" x="21.04" y="0">TUDIOS</tspan></text><path class="e" d="M53.28,32.72h-8.19l3.24-12.44L37.33.78h8.74l4.96,9.02c1.18,2.16,1.97,3.72,2.37,4.68.67-.94,1.45-1.95,2.34-3.01l3.78-4.23,5.64-6.47h9.53l-18.3,20.1-3.1,11.83Z"/><path class="e" d="M105.1,32.72h-7.65l-10.78-21.45-5.61,21.45h-7.65L81.74.78h7.68l10.81,21.37L105.81.78h7.62l-8.33,31.93Z"/><path class="e" d="M133.62,32.72h-8.22l6.97-26.59h-11.71l1.39-5.34h31.45l-1.39,5.34h-11.54l-6.94,26.59Z"/><path class="e" d="M180.62,18.45h-15.44l-3.73,14.27h-8.22L161.59.78h8.19l-3.21,12.33h15.44l3.24-12.33h8.19l-8.33,31.93h-8.22l3.73-14.27Z"/><path class="e" d="M204.54,32.72h-8.22L204.67.78h17.72c3.05,0,5.42.25,7.12.75,1.7.5,3.07,1.42,4.11,2.76,1.04,1.34,1.57,2.95,1.57,4.86,0,2.72-1.02,4.96-3.05,6.72-2.03,1.76-5.11,2.86-9.23,3.28,1.05.76,2.04,1.75,2.97,2.98,1.83,2.5,3.88,6.03,6.13,10.59h-8.82c-.71-1.8-2.1-4.61-4.17-8.43-1.13-2.06-2.32-3.45-3.59-4.16-.78-.42-2.14-.63-4.08-.63h-3.35l-3.46,13.22ZM209.25,14.7h4.36c4.41,0,7.34-.21,8.78-.63,1.44-.42,2.57-1.08,3.39-1.98.82-.9,1.23-1.84,1.23-2.83,0-1.16-.59-2.03-1.77-2.61-.73-.35-2.3-.52-4.71-.52h-9.04l-2.23,8.58Z"/><path class="e" d="M241.79,20.19c0-1.89.35-3.88,1.06-5.97.93-2.8,2.34-5.23,4.23-7.3,1.9-2.06,4.29-3.69,7.17-4.89,2.89-1.2,6.17-1.8,9.86-1.8,4.94,0,8.93,1.23,11.97,3.68,3.04,2.45,4.56,5.71,4.56,9.76,0,3.37-.99,6.63-2.97,9.78-1.98,3.15-4.67,5.58-8.06,7.27s-7.23,2.55-11.52,2.55c-3.72,0-6.84-.68-9.37-2.03-2.52-1.35-4.31-3.02-5.36-5.02-1.05-2-1.58-4.01-1.58-6.04ZM249.9,20.06c0,2.19.83,4.03,2.5,5.51s3.87,2.22,6.59,2.22c2.21,0,4.34-.58,6.38-1.75,2.04-1.17,3.73-2.94,5.06-5.31s2-4.69,2-6.94c0-2.51-.84-4.48-2.53-5.91-1.69-1.43-3.84-2.15-6.45-2.15-4.01,0-7.27,1.5-9.79,4.49-2.51,2.99-3.77,6.27-3.77,9.84Z"/><path class="f" d="M32.39,23.63c-.08-1.52-.53-2.76-1.38-3.74-2.32-2.7-7.2-3.02-12.36-3.36-7.52-.49-15.29-1-16.92-8.53-.16-1.21.28-2.45,1.26-3.58C5.05,2.07,9.01.67,13.58.67c4.83,0,10,1.54,14.96,4.45l.05.03h.25s.04-.21.04-.21c.04-.54-2.76-3.33-10.94-4.73.3,0,.6-.01.89-.01,5.57,0,9.77,1.57,11.84,4.43,1.43,1.98,1.78,4.52.99,7.18-5.96-5.66-13.14-6.11-15.22-6.11-3.01,0-5.26.72-5.73,1.82-.14.32-.19.84.37,1.43l.04.04h.06c12.01,2.97,18.59,6.23,20.68,10.28.71,1.36.89,2.8.55,4.35Z"/><path class="f" d="M13.37,33.08c-5.65,0-9.86-1.53-11.87-4.3-1.36-1.88-1.67-4.23-.89-6.8,5.96,5.67,13.15,6.11,15.23,6.11,3.01,0,5.26-.72,5.74-1.83.14-.32.19-.84-.37-1.43l-.04-.04h-.06C10.2,22.1,3.59,18.64,1.45,14.51c-.9-1.74-1.03-3.64-.39-5.66,1.93,7.8,10.27,8.38,17.65,8.89,6.62.46,12.34.85,12.92,5.88.17,1.28-.38,2.72-1.55,4.04-2.07,2.36-6.54,4.88-12.9,4.88-4.5,0-9.15-1.34-13.46-3.87l-.05-.03h-.27s-.03.21-.03.21c-.01.4,3.12,3.24,10.25,4.23-.09,0-.17,0-.26,0Z"/></g></g></svg>