<?xml version="1.0" encoding="UTF-8"?>
<svg xmlns="http://www.w3.org/2000/svg" viewBox="0 0 280.45 63.5">
  <defs>
    <style>
      .c {
        isolation: isolate;
      }

      .d {
        fill-rule: evenodd;
      }

      .d, .e {
        fill: #f2f6fb;
        stroke-width: 0px;
      }
    </style>
  </defs>
  <g id="a" data-name="b" class="c">
    <g id="b" data-name="d">
      <path class="e" d="M53.09,32.52h-8.19l3.24-12.44L37.14.58h8.74l4.96,9.02c1.18,2.16,1.97,3.72,2.37,4.68.67-.94,1.45-1.95,2.34-3.01l3.78-4.23,5.64-6.47h9.53l-18.3,20.1-3.1,11.83v.02Z"/>
      <path class="e" d="M104.91,32.52h-7.65l-10.78-21.45-5.61,21.45h-7.65L81.55.58h7.68l10.81,21.37L105.62.58h7.62l-8.33,31.93h0Z"/>
      <path class="e" d="M133.43,32.52h-8.22l6.97-26.59h-11.71l1.39-5.34h31.45l-1.39,5.34h-11.54l-6.94,26.59h-.01Z"/>
      <path class="e" d="M180.43,18.25h-15.44l-3.73,14.27h-8.22L161.4.58h8.19l-3.21,12.33h15.44l3.24-12.33h8.19l-8.33,31.93h-8.22l3.73-14.27h0Z"/>
      <path class="e" d="M204.35,32.52h-8.22L204.48.58h17.72c3.05,0,5.42.25,7.12.75s3.07,1.42,4.11,2.76,1.57,2.95,1.57,4.86c0,2.72-1.02,4.96-3.05,6.72-2.03,1.76-5.11,2.86-9.23,3.28,1.05.76,2.04,1.75,2.97,2.98,1.83,2.5,3.88,6.03,6.13,10.59h-8.82c-.71-1.8-2.1-4.61-4.17-8.43-1.13-2.06-2.32-3.45-3.59-4.16-.78-.42-2.14-.63-4.08-.63h-3.35l-3.46,13.22ZM209.06,14.5h4.36c4.41,0,7.34-.21,8.78-.63s2.57-1.08,3.39-1.98c.82-.9,1.23-1.84,1.23-2.83,0-1.16-.59-2.03-1.77-2.61-.73-.35-2.3-.52-4.71-.52h-9.04l-2.23,8.58h0Z"/>
      <path class="e" d="M241.6,19.99c0-1.89.35-3.88,1.06-5.97.93-2.8,2.34-5.23,4.23-7.3,1.9-2.06,4.29-3.69,7.17-4.89,2.89-1.2,6.17-1.8,9.86-1.8,4.94,0,8.93,1.23,11.97,3.68,3.04,2.45,4.56,5.71,4.56,9.76,0,3.37-.99,6.63-2.97,9.78-1.98,3.15-4.67,5.58-8.06,7.27-3.39,1.69-7.23,2.55-11.52,2.55-3.72,0-6.84-.68-9.37-2.03-2.52-1.35-4.31-3.02-5.36-5.02s-1.58-4.01-1.58-6.04h0ZM249.71,19.86c0,2.19.83,4.03,2.5,5.51s3.87,2.22,6.59,2.22c2.21,0,4.34-.58,6.38-1.75s3.73-2.94,5.06-5.31,2-4.69,2-6.94c0-2.51-.84-4.48-2.53-5.91-1.69-1.43-3.84-2.15-6.45-2.15-4.01,0-7.27,1.5-9.79,4.49-2.51,2.99-3.77,6.27-3.77,9.84h.01Z"/>
      <path class="d" d="M32.2,23.43c-.08-1.52-.53-2.76-1.38-3.74-2.32-2.7-7.2-3.02-12.36-3.36-7.52-.49-15.29-1-16.92-8.53-.16-1.21.28-2.45,1.26-3.58C4.86,1.87,8.82.47,13.39.47c4.83,0,10,1.54,14.96,4.45l.05.03h.25l.04-.21c.04-.54-2.76-3.33-10.94-4.73.3,0,.6-.01.89-.01,5.57,0,9.77,1.57,11.84,4.43,1.43,1.98,1.78,4.52.99,7.18-5.96-5.66-13.14-6.11-15.22-6.11-3.01,0-5.26.72-5.73,1.82-.14.32-.19.84.37,1.43l.04.04h.06c12.01,2.97,18.59,6.23,20.68,10.28.71,1.36.89,2.8.55,4.35h-.02Z"/>
      <path class="d" d="M13.18,32.88c-5.65,0-9.86-1.53-11.87-4.3-1.36-1.88-1.67-4.23-.89-6.8,5.96,5.67,13.15,6.11,15.23,6.11,3.01,0,5.26-.72,5.74-1.83.14-.32.19-.84-.37-1.43l-.04-.04h-.06C10.01,21.9,3.4,18.44,1.26,14.31c-.9-1.74-1.03-3.64-.39-5.66,1.93,7.8,10.27,8.38,17.65,8.89,6.62.46,12.34.85,12.92,5.88.17,1.28-.38,2.72-1.55,4.04-2.07,2.36-6.54,4.88-12.9,4.88-4.5,0-9.15-1.34-13.46-3.87l-.05-.03h-.27l-.03.21c0,.4,3.12,3.24,10.25,4.23h-.26,0Z"/>
    </g>
    <g>
      <g class="c">
        <path class="e" d="M55.48,48.67v.43h-3.86v-.27c0-1.07-.36-1.88-1.08-2.42-.72-.54-1.82-.81-3.29-.81s-2.56.24-3.37.73c-.81.48-1.22,1.17-1.22,2.06,0,.72.41,1.39,1.23,1.99.82.61,2.02,1.14,3.6,1.62s3.01,1.02,4.29,1.63c1.28.61,2.26,1.27,2.93,1.97.67.7,1.01,1.57,1.01,2.63,0,1.6-.82,2.87-2.47,3.8-1.65.93-3.81,1.4-6.49,1.4s-4.89-.46-6.35-1.39-2.2-2.28-2.2-4.07v-.76h3.65v.56c0,1.12.46,1.99,1.38,2.61.92.62,2.12.93,3.6.93s2.74-.28,3.68-.84c.94-.56,1.41-1.31,1.41-2.24,0-.55-.26-1.1-.78-1.65-.52-.55-1.61-1.09-3.26-1.63-1.65-.54-3.21-1.11-4.67-1.7-1.46-.59-2.55-1.27-3.25-2.03s-1.06-1.63-1.06-2.63c0-1.56.77-2.8,2.31-3.74,1.54-.93,3.66-1.4,6.35-1.4s4.57.44,5.91,1.31c1.34.88,2.01,2.17,2.01,3.9Z"/>
      </g>
      <g class="c">
        <path class="e" d="M86.87,43.79v2.14h-7.62v17.18h-3.72v-17.18h-7.58v-2.14h18.93Z"/>
        <path class="e" d="M104.45,43.79v13.46c0,1.33.45,2.35,1.34,3.06.9.71,2.22,1.06,3.97,1.06,1.87,0,3.22-.37,4.07-1.1.84-.73,1.26-1.84,1.26-3.32v-13.17h3.61v12.96c0,2.24-.74,3.92-2.21,5.05-1.47,1.13-3.73,1.69-6.77,1.69-2.88,0-5.09-.54-6.63-1.61-1.55-1.07-2.32-2.6-2.32-4.57v-13.52h3.68Z"/>
        <path class="e" d="M143.86,43.79c1.7,0,3.17.16,4.41.49s2.21.81,2.92,1.46c.71.65,1.24,1.53,1.6,2.65s.54,2.93.54,5.44c0,2.74-.36,4.7-1.09,5.89-.72,1.19-1.92,2.06-3.58,2.59-1.66.54-3.89.8-6.68.8h-6.63v-19.33h8.51ZM141.98,60.98c2.35,0,4.02-.21,5-.63.98-.42,1.67-1.09,2.07-2.02.4-.93.6-2.64.6-5.14,0-2.09-.17-3.61-.51-4.57-.34-.96-.97-1.64-1.88-2.06-.91-.41-2.26-.62-4.04-.62h-4.14v15.04h2.9Z"/>
        <path class="e" d="M174.05,43.79v19.33h-3.74v-19.33h3.74Z"/>
        <path class="e" d="M209.13,51.48v3.62c0,3.15-.73,5.33-2.21,6.54-1.47,1.21-3.86,1.81-7.16,1.81-3.07,0-5.32-.61-6.73-1.82-1.42-1.22-2.13-3.11-2.13-5.68v-5.03c0-2.78.72-4.74,2.17-5.89,1.44-1.15,3.75-1.72,6.91-1.72s5.48.61,6.95,1.82c1.47,1.21,2.21,3.33,2.21,6.35ZM194.67,56.02c0,1.96.4,3.34,1.21,4.14.8.8,2.16,1.2,4.07,1.2,1.5,0,2.64-.19,3.41-.58.77-.39,1.3-.97,1.58-1.74s.42-2.1.42-3.99v-4.59c0-1.69-.42-2.95-1.25-3.78-.83-.83-2.21-1.25-4.12-1.25s-3.25.38-4.08,1.14-1.23,1.99-1.23,3.68v5.78Z"/>
        <path class="e" d="M242,48.67v.43h-3.86v-.27c0-1.07-.36-1.88-1.08-2.42-.72-.54-1.82-.81-3.29-.81s-2.56.24-3.37.73c-.81.48-1.22,1.17-1.22,2.06,0,.72.41,1.39,1.23,1.99s2.02,1.14,3.6,1.62c1.58.47,3.01,1.02,4.29,1.63s2.26,1.27,2.93,1.97c.67.7,1.01,1.57,1.01,2.63,0,1.6-.82,2.87-2.47,3.8-1.65.93-3.81,1.4-6.49,1.4s-4.89-.46-6.35-1.39c-1.46-.93-2.19-2.28-2.19-4.07v-.76h3.65v.56c0,1.12.46,1.99,1.38,2.61.92.62,2.12.93,3.6.93s2.74-.28,3.69-.84c.94-.56,1.41-1.31,1.41-2.24,0-.55-.26-1.1-.78-1.65s-1.61-1.09-3.26-1.63c-1.65-.54-3.21-1.11-4.67-1.7-1.46-.59-2.55-1.27-3.25-2.03-.71-.76-1.06-1.63-1.06-2.63,0-1.56.77-2.8,2.31-3.74,1.54-.93,3.66-1.4,6.35-1.4s4.57.44,5.91,1.31c1.34.88,2.01,2.17,2.01,3.9Z"/>
      </g>
    </g>
  </g>
</svg>